<svg xmlns="http://www.w3.org/2000/svg" viewBox="0 0 179.9 190.8" height="190.8" width="179.9"><defs><clipPath id="a"><path d="M0 3v1431h1349V3z"/></clipPath></defs><g clip-path="url(#a)" transform="matrix(.13333 0 0 -.13333 0 191.2)"><path d="M440.3 1005.8a131.7 131.7 0 0 0-37.6-10c-13.5-1.9-27.1-2.4-38.3-2.4-43.2 0-75 6.4-96.9 17-21.9 10.6-34 25.4-37.8 42.3l-107.5-2.6-107.5-2.5c1.7-11.8 4.5-29.5 13.5-49.3A158 158 0 0 1 78.6 937c35.8-27.1 84.2-41.8 131.2-49.6 47-8 92.8-9 123.5-9 82 0 148.7 7.1 201.2 22.4 52.6 15.3 91 38.7 116.5 71.3a150 150 0 0 1 22.7 40c5.7 15 9.2 31.5 9.2 48.6 0 23.5-6.5 48-23.1 69.9-16.6 21.9-43.4 41.1-84 54a371 371 0 0 1-38.9 10.7c-13 3-26.2 5.3-39.6 7.5-20.7 4-41.7 7.7-62.6 11.4-21 3.6-41.9 7.3-62.6 11.4-16.8 2.9-40.6 7.3-62 13-21.3 5.6-40.3 12.6-47.6 20.6-2.2 2.2-4 5-5.1 8-1.2 3.2-1.8 6.7-1.8 10.3 0 19 16.8 29.5 37.2 35.2 20.4 5.7 44.4 6.6 58.6 6.6 45.7 0 71.2-7.7 85.9-17.5a50 50 0 0 0 21.2-30.1l107 5 107 5.2c-3 14-8.2 39-26.8 64.5-18.7 25.4-50.9 51.3-107.8 66.6-19 5.5-46.9 10.5-79.2 14a992.8 992.8 0 0 1-106.5 5.8c-33.6 0-81.1-1.5-128.7-10.4-47.6-9-95.3-25.5-129.4-55.5a150 150 0 0 1-35.9-45.9 123.5 123.5 0 0 1-13.3-55.2c0-47.2 24.4-78.2 51.7-98.2 27.3-20 57.5-29.2 69.2-32.9a718 718 0 0 1 70-16.1c15-3 56.9-9.5 98.3-16.3 41.5-6.8 82.5-13.7 95.8-17.4a81.4 81.4 0 0 0 26.8-12.6 33 33 0 0 0 13.8-27 37 37 0 0 0-9.6-23.5 66.4 66.4 0 0 0-20.6-16" fill="#c4122e"/><path d="M440.3 1005.8a131.7 131.7 0 0 0-37.6-10c-13.5-1.9-27.1-2.4-38.3-2.4-43.2 0-75 6.4-96.9 17-21.9 10.6-34 25.4-37.8 42.3l-107.5-2.6-107.5-2.5c1.7-11.8 4.5-29.5 13.5-49.3A158 158 0 0 1 78.6 937c35.8-27.1 84.2-41.8 131.2-49.6 47-8 92.8-9 123.5-9 82 0 148.7 7.1 201.2 22.4 52.6 15.3 91 38.7 116.5 71.3a150 150 0 0 1 22.7 40c5.7 15 9.2 31.5 9.2 48.6 0 23.5-6.5 48-23.1 69.9-16.6 21.9-43.4 41.1-84 54a371 371 0 0 1-38.9 10.7c-13 3-26.2 5.3-39.6 7.5-20.7 4-41.7 7.7-62.6 11.4-21 3.6-41.9 7.3-62.6 11.4-16.8 2.9-40.6 7.3-62 13-21.3 5.6-40.3 12.6-47.6 20.6-2.2 2.2-4 5-5.1 8-1.2 3.2-1.8 6.7-1.8 10.3 0 19 16.8 29.5 37.2 35.2 20.4 5.7 44.4 6.6 58.6 6.6 45.7 0 71.2-7.7 85.9-17.5a50 50 0 0 0 21.2-30.1l107 5 107 5.2c-3 14-8.2 39-26.8 64.5-18.7 25.4-50.9 51.3-107.8 66.6-19 5.5-46.9 10.5-79.2 14a992.8 992.8 0 0 1-106.5 5.8c-33.6 0-81.1-1.5-128.7-10.4-47.6-9-95.3-25.5-129.4-55.5a150 150 0 0 1-35.9-45.9 123.5 123.5 0 0 1-13.3-55.2c0-47.2 24.4-78.2 51.7-98.2 27.3-20 57.5-29.2 69.2-32.9a718 718 0 0 1 70-16.1c15-3 56.9-9.5 98.3-16.3 41.5-6.8 82.5-13.7 95.8-17.4a81.4 81.4 0 0 0 26.8-12.6 33 33 0 0 0 13.8-27 37 37 0 0 0-9.6-23.5 66.4 66.4 0 0 0-20.6-16z" fill="none" stroke="#c4122e" stroke-width="2"/><path d="M1236.4 905.5c51.6 20.6 93.6 65 93.6 140 0 38.2-7.4 65.7-29.5 90.2-28.8 31.3-66.3 37.4-97.3 42 63.4 16.1 100.2 53.6 100.2 120.9 0 24.5-6.6 70.4-44.2 98.7-36 26.7-85.4 27.5-121.5 28.3H701.5v-540h400c40.6 0 91.4 3 134.9 19.9zm-347.8 397.7H1064c17.6 0 30.2-.8 37.6-4.6 16.9-7.7 23.5-19.9 23.5-35.2 0-20.6-8.8-33.7-22.8-39-5.2-2.3-11-4.6-39-4.6H888.5zm-.7-294.5v94h185c22.8 0 35.3 0 47-3.7 15.5-4.6 25.1-18.4 25.1-39 0-18.4-4.4-37.5-28.7-46.7-8.1-3.8-21.4-4.6-39.8-4.6H887.9" fill="#c4122e"/><path d="M1236.4 905.5c51.6 20.6 93.6 65 93.6 140 0 38.2-7.4 65.7-29.5 90.2-28.8 31.3-66.3 37.4-97.3 42 63.4 16.1 100.2 53.6 100.2 120.9 0 24.5-6.6 70.4-44.2 98.7-36 26.7-85.4 27.5-121.5 28.3H701.5v-540h400c40.6 0 91.4 3 134.9 19.9zm-347.8 397.7H1064c17.6 0 30.2-.8 37.6-4.6 16.9-7.7 23.5-19.9 23.5-35.2 0-20.6-8.8-33.7-22.8-39-5.2-2.3-11-4.6-39-4.6H888.5zm-.7-294.5v94h185c22.8 0 35.3 0 47-3.7 15.5-4.6 25.1-18.4 25.1-39 0-18.4-4.4-37.5-28.7-46.7-8.1-3.8-21.4-4.6-39.8-4.6z" fill="none" stroke="#c4122e" stroke-width="2"/><path d="M454 428.7A164.4 164.4 0 0 0 348.8 393c-106.8 0-153.2 84.2-153.2 165.2 0 113.7 75.1 167.5 159.1 167.5 26.6 0 61.2-6 89.2-24.2 27.2-18.2 36-38.7 43.4-53.8l172.4 31.8c-17 50.8-56.7 169-309.4 169C54 848.5 1 661.3 1 557.5c0-147 88.4-231.2 195.2-265.3 48-15.1 98-19.7 148.9-19.7 114.1 0 233.5 27.3 294.6 124.3a249 249 0 0 1 29.5 66.7l-177.6 19c-5.8-16-13.2-33.4-37.5-53.8" fill="#c4122e"/><path d="M454 428.7A164.4 164.4 0 0 0 348.8 393c-106.8 0-153.2 84.2-153.2 165.2 0 113.7 75.1 167.5 159.1 167.5 26.6 0 61.2-6 89.2-24.2 27.2-18.2 36-38.7 43.4-53.8l172.4 31.8c-17 50.8-56.7 169-309.4 169C54 848.5 1 661.3 1 557.5c0-147 88.4-231.2 195.2-265.3 48-15.1 98-19.7 148.9-19.7 114.1 0 233.5 27.3 294.6 124.3a249 249 0 0 1 29.5 66.7l-177.6 19c-5.8-16-13.2-33.4-37.5-53.8z" fill="none" stroke="#c4122e" stroke-width="2"/><path d="M1170.6 482.5c-6-16-13.3-33.4-37.6-53.8a164.4 164.4 0 0 0-105.3-35.7c-106.9 0-153.3 84.2-153.3 165.2 0 113.7 75.1 167.5 159.1 167.5 26.6 0 61.2-6 89.2-24.2 27.2-18.2 36-38.7 43.4-53.8l172.5 31.8c-17 50.8-56.8 169-309.5 169-296.1 0-349.2-187.2-349.2-291 0-147 88.4-231.2 195.2-265.3 48-15.1 98-19.7 148.9-19.7 114.2 0 233.5 27.3 294.7 124.3a248 248 0 0 1 29.4 66.7l-177.5 19" fill="#c4122e"/><path d="M1170.6 482.5c-6-16-13.3-33.4-37.6-53.8a164.4 164.4 0 0 0-105.3-35.7c-106.9 0-153.3 84.2-153.3 165.2 0 113.7 75.1 167.5 159.1 167.5 26.6 0 61.2-6 89.2-24.2 27.2-18.2 36-38.7 43.4-53.8l172.5 31.8c-17 50.8-56.8 169-309.5 169-296.1 0-349.2-187.2-349.2-291 0-147 88.4-231.2 195.2-265.3 48-15.1 98-19.7 148.9-19.7 114.2 0 233.5 27.3 294.7 124.3a248 248 0 0 1 29.4 66.7z" fill="none" stroke="#c4122e" stroke-width="2"/><path d="M55.2 160.8c2.1-2.4 4-4.4 8.2-6.7 5.6-3 11.3-4 16.3-4 8.4 0 15.6 4 15.6 9.8 0 6.7-8.5 7.8-14.8 8.7-4.7.5-9.4 1.1-14 2.1-5 1-22.7 4.8-22.7 23 0 21.9 19.4 28.4 34 28.4 19.6 0 30.2-9.5 37.5-16.1l-15.6-11.2a30.4 30.4 0 0 1-22.2 10.6c-8.4 0-12.6-4.8-12.6-8.9 0-6.5 7.2-7.4 10.8-8 9-1 21.1-3.3 26-5a21 21 0 0 0 14.6-20.7c0-6.1-2.3-12.9-6.7-18-7.7-8.9-20-11.4-31.8-11.4-24 0-33.4 11-38.7 17.2l16 10.2M194.4 220l31.2-84.7H203l-4.2 13.6h-31.2l-4.2-13.6H141l31.4 84.7zM183 200c-1-4.3-2.3-8.8-3.5-13.1-1.8-6.4-5-16.3-7-22.7H194L183 200M254.4 220H275l18.4-31.2c6.7-11.9 8.8-15.7 12.7-23.1l-1 54.3h20.3v-84.7h-20.7l-15.9 26.8a299 299 0 0 0-14.8 26.5l.6-53.3h-20.3V220M355 220.1h65.3v-16.7h-22v-68h-21.2v68h-22V220M483.1 220l31.2-84.7h-22.5l-4.2 13.6h-31.2l-4.2-13.6h-22.6l31.5 84.7zM471.7 200c-1-4.3-2.3-8.8-3.4-13.1l-7-22.7h21.5l-11 35.8M602.2 220h32.7c9 0 17-.3 22.1-2a20 20 0 0 0 14.6-19.7c0-4.6-1.2-7.3-1.5-8.2-3.9-8.6-12-10.3-16.6-11.2 5.2-.9 12-2 16.7-7.2 3-3.3 4.7-8 4.7-12.8 0-6.5-3.5-15.8-14-20.5a56 56 0 0 0-23-3h-35.7zm20.1-15.8v-17.6h16c4.8 0 12.6.3 12.6 9 0 8.2-7 8.6-11.2 8.6zm0-33v-20.5h14.8c7 0 16.3.3 16.3 10 0 10.2-8.4 10.4-12.7 10.5h-18.4M750.4 220l31.2-84.7H759l-4.2 13.6h-31.2l-4.2-13.6H697l31.4 84.7zM739 200c-1-4.3-2.3-8.8-3.5-13.1-1.8-6.4-5-16.3-7-22.7H750L739 200M810.4 220h38.2c8.8 0 19.9-.2 27.7-8.6 4-4.5 6.7-11.2 6.7-18.8 0-17-11.6-21.3-17.4-23.5l19.6-33.8h-23.4L845 165.6h-13.4v-30.3h-21.2zm21.2-15.8v-23h17.6c3 .2 12.7.4 12.7 11.7 0 10.8-7.8 11.2-12.3 11.3h-18M921 220h32.7c8.9 0 16.9-.3 22-2a20 20 0 0 0 14.7-19.7c0-4.6-1.2-7.3-1.6-8.2-3.8-8.6-12-10.3-16.5-11.2 5.1-.9 12-2 16.6-7.2 3-3.3 4.7-8 4.7-12.8 0-6.5-3.4-15.8-14-20.5a56 56 0 0 0-23-3H921zm20-15.8v-17.6h16c4.8 0 12.6.3 12.6 9 0 8.2-7 8.6-11.1 8.6zm0-33v-20.5h14.8c7.1 0 16.4.3 16.4 10 0 10.2-8.4 10.4-12.8 10.5h-18.3M1069.1 220l31.2-84.7h-22.5l-4.2 13.6h-31.2l-4.2-13.6h-22.6l31.5 84.7zm-11.4-20.1c-1-4.3-2.2-8.8-3.4-13.1-1.8-6.4-5-16.3-7-22.7h21.5l-11 35.8M1129.1 220h38.2c8.9 0 20-.2 27.7-8.6 4-4.5 6.7-11.2 6.7-18.8 0-17-11.6-21.3-17.3-23.5l19.5-33.8h-23.4l-16.8 30.3h-13.3v-30.3H1129zm21.3-15.8v-23h17.5c3 .2 12.7.4 12.7 11.7 0 10.8-7.8 11.2-12.2 11.3h-18M1279.9 220l31.2-84.7h-22.6l-4.2 13.6h-31.2l-4.2-13.6h-22.6l31.5 84.7zm-11.4-20.1l-3.5-13.1c-1.8-6.4-5-16.3-7-22.7h21.5l-11 35.8M116.1 21.8C113 17 110 12.1 103.3 7.4A41.3 41.3 0 0 0 79.6 0C57.2 0 39.1 16.3 39.1 45c0 25 17 44.9 41 44.9a39.9 39.9 0 0 0 35.8-22L99 59.5a21.4 21.4 0 0 1-6.4 8.8c-4 3.2-8.1 4.2-11.6 4.2-13.7 0-20.9-12.7-20.9-26.9 0-18.6 9.5-27.9 20.9-27.9 11 0 15.5 7.7 18.3 12.7l16.7-8.6M162.8 2.5h21.1v84.7h-21.1zM231 87.4h65.2V70.6h-22v-68H253v68h-22v16.8M335.6 87.2H360l18.2-29c1 2.4 1.3 2.9 3.5 6.4l14.5 22.6h24.1l-32-44.6v-40h-20.9V42l-31.8 45.2M610.2 21.8C607 17 604 12.1 597.3 7.4A41.3 41.3 0 0 0 573.7 0C551.2 0 533 16.3 533 45c0 25 17 44.9 41 44.9a39.9 39.9 0 0 0 35.8-22l-16.8-8.4a21.4 21.4 0 0 1-6.3 8.8c-4.1 3.2-8.2 4.2-11.7 4.2-13.7 0-20.9-12.7-20.9-26.9 0-18.6 9.5-27.8 21-27.8 11 0 15.4 7.6 18.3 12.6l16.7-8.6M696 .1c-27 0-42.2 20.7-42.2 45.1 0 23 14.6 44.7 41.8 44.7 5 0 10.3-.7 15.5-2.5 25.9-9 27.6-37.2 27.6-43A46 46 0 0 0 722.6 9 40.8 40.8 0 0 0 696 0zM710.6 66a20.7 20.7 0 0 1-14.9 6.2c-12.8 0-21-11.2-21-26.6C674.7 25.4 686 18 696 18s20.8 7.2 21.4 25c.4 8.8-2 17.8-6.8 23M789.8 87.4h21.1v-67H844V2.5h-54.2v84.9M892.6 87.4h21.2v-67h33V2.5h-54.2v84.9M995.5 87.2h62.6V70.8h-41.5V55.4h38.8v-16h-38.8V19.2h45.2V2.5h-66.3v84.7M1173 10.4a33.7 33.7 0 0 0-24.9-9.8c-23.6 0-38.1 19.2-38.1 44.2 0 27.2 17.6 45.3 41.7 45.3 22.5 0 33.4-14.4 37.3-19.5l-16-9.8c-3 4.6-8 12-19.7 12-16.1 0-22.2-13.3-22.2-27.4 0-9.6 2.6-17.5 6.7-21.6 3.2-3.5 9-6.2 15.5-6.2 3.8 0 8.1 1 11.6 3.3 5.5 3.6 6.2 8.1 6.9 12.6h-19v16h36.8v-47h-16.5v8M1246.2 87.2h62.6V70.8h-41.5V55.4h38.7v-16h-38.7V19.2h45.2V2.5h-66.3v84.7" fill="#231f20"/></g></svg>